<?xml version="1.0" standalone="no"?>
<!DOCTYPE svg PUBLIC "-//W3C//DTD SVG 20010904//EN"
 "http://www.w3.org/TR/2001/REC-SVG-20010904/DTD/svg10.dtd">
<svg version="1.0" xmlns="http://www.w3.org/2000/svg"
 width="380.000000pt" height="380.000000pt" viewBox="0 0 380.000000 380.000000"
 preserveAspectRatio="xMidYMid meet">

<g transform="translate(0.000000,380.000000) scale(0.100000,-0.100000)"
fill="#000000" stroke="none">
<path d="M1701 3749 c-794 -83 -1459 -684 -1621 -1465 -126 -614 62 -1243 506
-1688 386 -385 917 -583 1447 -538 375 32 684 149 982 372 496 372 779 1000
727 1613 -39 460 -219 851 -538 1171 -399 398 -946 593 -1503 535z m158 -125
c12 -15 21 -33 21 -40 0 -8 9 -14 20 -14 11 0 20 -7 20 -15 0 -8 -7 -15 -15
-15 -16 0 -16 -28 1 -167 4 -34 2 -43 -10 -43 -15 0 -20 23 -31 143 -7 67 -7
68 -33 65 -30 -3 -30 -2 -19 -135 6 -69 5 -83 -7 -83 -10 0 -17 17 -21 54 l-7
53 -46 -5 c-26 -2 -51 -8 -55 -12 -5 -4 11 -24 34 -44 30 -25 40 -39 32 -47
-11 -11 -105 66 -124 102 -12 24 -2 46 14 30 19 -19 37 -12 37 13 0 45 -10 56
-50 56 -22 0 -41 4 -44 9 -8 12 28 20 89 22 63 1 104 12 87 23 -15 9 -16 48 0
64 7 7 29 12 49 12 29 0 43 -6 58 -26z m475 -28 c18 -7 48 -33 67 -56 19 -24
47 -56 63 -72 27 -27 27 -30 -3 -32 -9 -1 -27 -38 -46 -95 -17 -52 -37 -97
-45 -99 -10 -4 -12 3 -7 25 5 27 4 30 -16 26 -13 -3 -34 5 -50 17 -33 26 -37
78 -8 104 23 21 74 24 96 6 14 -12 18 -11 26 1 15 24 11 27 -48 44 -32 8 -68
20 -80 25 -27 11 -30 7 -67 -107 -19 -56 -33 -83 -43 -83 -8 0 -13 6 -10 13 2
6 17 51 33 99 27 85 27 88 10 101 -13 10 -15 16 -8 21 7 4 17 4 22 1 6 -3 10
1 10 10 0 18 43 65 60 65 6 0 26 -6 44 -14z m-316 -80 c30 -60 29 -128 -3
-193 -26 -51 -51 -80 -60 -71 -3 3 6 27 20 54 34 65 41 136 21 194 -18 52 -19
60 -8 60 5 0 18 -20 30 -44z m-478 4 c0 -5 -7 -13 -15 -18 -13 -7 -11 -21 19
-102 33 -88 36 -110 17 -110 -5 0 -23 42 -41 93 -18 50 -36 95 -39 99 -4 4
-17 5 -30 1 -27 -7 -26 -14 17 -130 25 -65 28 -82 17 -87 -12 -4 -49 75 -79
172 -6 18 -12 21 -29 16 -31 -9 -31 -9 -12 -38 16 -25 16 -40 0 -92 -5 -17 1
-24 34 -39 40 -18 54 -35 28 -35 -8 0 -28 7 -46 16 -21 11 -44 14 -70 9 -25
-4 -41 -2 -46 5 -10 16 14 40 41 40 42 0 59 63 25 94 -26 24 -63 13 -59 -17 2
-16 11 -23 31 -25 30 -4 32 -25 3 -30 -24 -5 -66 25 -66 47 0 14 -6 17 -24 14
-13 -3 -26 0 -30 5 -4 6 61 33 156 65 167 57 198 64 198 47z m1125 -152 c122
-66 160 -98 109 -90 -15 2 -32 -19 -73 -88 -29 -49 -57 -87 -62 -84 -16 9 -9
27 41 109 27 43 46 83 44 87 -3 4 -14 12 -24 18 -16 9 -25 -1 -73 -77 -50 -81
-77 -110 -77 -83 0 6 16 39 35 72 20 33 35 62 33 63 -6 5 -47 25 -51 25 -2 0
-2 -13 1 -28 4 -32 -19 -62 -48 -62 -15 0 -17 -6 -13 -40 5 -33 3 -40 -11 -40
-11 0 -16 9 -16 33 0 17 -7 45 -15 61 -8 15 -15 35 -15 42 0 21 28 17 42 -6
17 -27 48 -26 48 0 0 12 -7 35 -16 51 -8 17 -13 34 -9 37 3 3 31 -6 62 -22 39
-19 59 -24 66 -17 13 13 17 9 -65 55 -62 33 -85 56 -58 56 6 0 71 -33 145 -72z
m-1517 1 c-15 -8 -10 -20 47 -97 43 -58 60 -90 54 -97 -7 -7 -16 -3 -28 11
l-17 21 -28 -23 c-31 -28 -47 -29 -85 -10 -24 13 -30 13 -59 -6 -18 -11 -32
-24 -32 -28 0 -5 25 -14 55 -21 36 -8 55 -17 55 -27 0 -11 -8 -13 -37 -8 -61
11 -143 47 -143 63 0 10 6 12 20 8 34 -11 38 24 6 52 l-27 23 -31 -21 c-19
-14 -33 -18 -39 -12 -7 7 41 43 138 106 99 65 151 93 158 86 7 -7 4 -13 -7
-20z m1766 -166 c78 -60 92 -79 53 -69 -20 5 -34 -7 -93 -74 -38 -44 -72 -80
-76 -80 -22 0 -14 25 23 65 l41 45 -23 20 c-27 22 -45 25 -54 10 -10 -16 -25
-1 -25 26 0 39 26 40 74 1 l43 -36 24 25 c13 14 19 28 13 32 -5 4 -30 25 -56
46 -46 36 -64 64 -33 53 8 -4 48 -32 89 -64z m-818 6 c480 -67 908 -434 1058
-908 56 -176 72 -426 41 -619 -30 -182 -110 -379 -220 -537 -76 -110 -235
-263 -352 -339 -231 -151 -449 -216 -728 -216 -366 0 -668 124 -926 380 -261
259 -389 566 -389 935 0 365 126 672 383 931 196 197 465 336 722 373 87 12
321 13 411 0z m-1503 -144 c-27 -19 -20 -40 17 -54 22 -7 32 -6 41 5 12 15 39
19 39 6 0 -4 -5 -13 -11 -19 -7 -7 -2 -15 18 -28 97 -62 154 -108 145 -117 -7
-7 -39 9 -98 51 -83 57 -89 60 -106 44 -18 -16 -18 -18 13 -33 33 -17 58 -53
59 -82 0 -15 7 -16 51 -11 42 5 51 3 47 -8 -3 -8 -24 -16 -50 -19 -32 -4 -52
-13 -66 -30 -12 -15 -25 -21 -35 -17 -23 9 -21 33 4 50 29 21 22 67 -13 87
-31 17 -60 6 -66 -24 -4 -21 26 -32 49 -18 25 16 38 -7 14 -25 -24 -17 -46
-17 -71 1 -16 13 -21 12 -36 -1 -9 -8 -22 -12 -27 -8 -7 4 13 36 50 82 49 59
59 77 48 84 -8 5 -17 9 -21 9 -15 0 -38 33 -38 55 0 28 39 60 54 45 7 -7 3
-15 -11 -25z m2566 -103 c34 -41 61 -78 61 -83 0 -13 -28 -11 -32 2 -2 5 -43
-20 -92 -56 -64 -49 -91 -64 -99 -56 -8 8 -6 15 8 25 59 42 57 38 30 72 -19
24 -30 30 -50 27 -21 -5 -25 -2 -25 18 0 38 16 56 37 43 15 -9 25 -6 56 18 36
29 37 31 21 49 -9 10 -13 23 -9 29 9 14 10 13 94 -88z m-2237 -47 c11 -15 10
-35 -2 -35 -5 0 -10 7 -10 15 0 8 -8 15 -18 15 -26 0 -34 11 -21 27 12 13 31
5 51 -22z m2396 -182 c39 -69 70 -129 67 -132 -3 -3 -15 0 -25 7 -17 10 -33 5
-110 -33 -97 -50 -103 -52 -108 -36 -2 5 39 31 90 57 51 25 94 47 96 49 5 5
-21 55 -29 55 -4 0 -11 -4 -14 -10 -14 -22 -41 -7 -68 37 -19 31 -31 43 -38
36 -7 -7 -3 -22 12 -47 17 -30 20 -42 11 -61 -13 -29 -44 -40 -72 -25 -28 15
-26 34 4 26 36 -9 53 17 32 49 -32 49 -85 19 -89 -51 -4 -55 -27 -57 -27 -1 0
49 26 91 63 103 12 4 33 15 47 26 28 21 56 16 65 -10 11 -33 40 -62 53 -53 10
6 5 21 -21 67 -32 54 -37 74 -19 74 4 0 40 -57 80 -127z m-2808 48 c-15 -30
-13 -38 20 -51 l29 -12 -20 -40 c-19 -38 -19 -41 -3 -59 23 -25 70 -25 84 1 8
16 6 24 -11 41 -19 19 -20 23 -5 37 14 14 18 14 40 -7 14 -14 33 -21 47 -19
16 2 24 -2 24 -12 0 -9 -11 -16 -28 -18 -18 -2 -32 -12 -39 -27 -10 -23 -46
-45 -74 -45 -28 0 -71 29 -77 51 -3 12 0 34 8 49 11 20 11 30 2 39 -20 20 -32
12 -61 -44 -16 -30 -35 -55 -42 -55 -8 0 -14 2 -14 5 0 18 105 185 116 185 11
0 12 -4 4 -19z m-118 -204 c-2 -14 81 -46 168 -64 28 -5 50 -27 38 -38 -2 -2
-49 9 -103 26 -55 16 -105 27 -111 25 -6 -2 -14 -14 -17 -25 -4 -17 3 -22 49
-36 30 -8 79 -22 109 -31 30 -8 55 -19 55 -24 0 -18 -19 -19 -60 -5 -23 8 -49
15 -56 15 -23 0 -16 -36 10 -48 43 -19 39 -77 -8 -107 -31 -21 -87 -25 -93 -7
-3 8 6 12 29 12 33 0 78 29 78 50 0 11 -29 40 -40 40 -5 0 -18 -12 -29 -26
-20 -26 -45 -26 -35 0 3 7 -2 21 -11 30 -20 19 -42 7 -47 -25 -4 -26 -22 -25
-26 1 -8 48 58 78 93 44 20 -21 38 -6 33 27 -2 16 -14 26 -46 37 -24 8 -41 19
-39 26 2 6 13 37 23 69 10 31 23 56 28 54 6 -2 10 -11 8 -20z m3014 -11 c4
-12 11 -12 29 -4 81 37 121 -60 71 -169 -14 -28 -22 -61 -19 -72 6 -24 -12
-28 -24 -6 -8 13 -22 11 -108 -15 -55 -16 -103 -30 -107 -30 -17 0 -7 28 12
33 18 5 19 7 6 32 -17 32 -5 80 24 95 49 26 110 -2 110 -51 0 -21 5 -29 18
-29 10 0 21 3 24 6 8 7 -41 154 -51 154 -6 0 -125 -34 -193 -56 -12 -3 -18 0
-18 10 0 11 31 25 104 47 89 27 103 34 99 50 -6 22 15 26 23 5z m118 -446 c10
-89 16 -163 13 -166 -8 -9 -27 5 -27 20 0 10 -14 11 -57 5 -163 -20 -163 -20
-163 -5 0 15 27 22 143 32 62 5 77 10 77 23 -1 41 -3 41 -207 16 -34 -3 -43
-1 -43 10 0 9 10 15 25 15 29 0 31 7 9 31 -18 20 -22 75 -5 92 6 6 23 12 36
12 14 1 31 10 38 20 16 21 66 23 78 4 5 -8 9 -23 9 -35 0 -26 8 -34 26 -27 11
4 12 18 8 59 -5 43 -4 54 7 54 11 0 19 -37 33 -160z m-3200 60 c48 -25 71 -30
127 -30 37 0 80 5 95 10 33 13 46 3 20 -15 -27 -21 -112 -36 -157 -29 -42 7
-140 61 -147 82 -5 16 -6 16 62 -18z m-64 -189 c0 -28 1 -28 49 -23 42 4 51 1
63 -17 17 -28 26 -27 64 10 19 18 37 28 44 24 15 -10 -31 -59 -87 -92 -47 -27
-75 -23 -48 7 22 25 11 40 -29 40 -42 0 -56 -16 -56 -62 0 -21 -4 -38 -10 -38
-6 0 -10 37 -10 90 0 53 4 90 10 90 6 0 10 -13 10 -29z m3280 -89 c0 -100 -14
-212 -26 -212 -8 0 -14 6 -14 14 0 15 -68 26 -162 26 -46 0 -58 3 -58 16 0 13
13 15 77 13 81 -2 102 9 64 33 -26 16 -27 38 -2 38 29 0 37 21 15 37 -28 21
-75 8 -106 -29 -23 -26 -30 -30 -40 -19 -11 10 -6 19 26 47 62 54 129 55 156
3 9 -16 8 -26 -4 -44 -10 -15 -12 -26 -6 -30 6 -3 10 -15 10 -26 0 -26 26 -24
34 4 3 12 6 52 6 90 0 53 3 67 15 67 10 0 15 -10 15 -28z m-3275 -119 c10 -75
14 -83 41 -83 24 0 32 14 14 25 -18 11 -11 53 12 69 32 23 68 20 103 -8 27
-22 28 -25 12 -31 -11 -5 -25 -1 -36 9 -40 37 -92 5 -56 -34 16 -18 26 -19 82
-14 44 5 63 3 63 -4 0 -7 -11 -14 -24 -18 -22 -5 -24 -10 -19 -40 8 -47 -17
-74 -67 -74 -45 0 -64 19 -62 64 1 30 -1 33 -23 28 -19 -3 -24 -9 -21 -26 15
-72 16 -106 3 -106 -10 0 -19 34 -31 118 -9 64 -19 129 -22 145 -4 20 -2 27
10 27 10 0 17 -15 21 -47z m3160 -139 c24 -30 59 -27 68 6 6 22 27 27 27 7 0
-20 -38 -188 -44 -194 -9 -9 -25 7 -20 21 4 10 -19 18 -88 31 -122 22 -130 25
-125 38 2 7 19 10 40 9 30 -3 36 -1 31 12 -9 23 14 72 39 84 35 17 50 14 72
-14z m-2894 -109 c0 -5 -31 -19 -70 -30 -52 -14 -71 -24 -69 -35 2 -8 16 -16
31 -18 32 -4 33 -9 7 -37 -18 -19 -19 -24 -6 -34 26 -22 80 10 100 59 12 31
20 40 28 32 25 -25 -40 -114 -94 -127 -21 -5 -33 -1 -52 18 -15 15 -23 32 -20
41 7 17 -25 65 -43 66 -18 0 -16 -17 12 -100 16 -48 22 -77 15 -84 -6 -6 -13
1 -21 20 -10 25 -68 205 -69 212 -1 9 29 -1 33 -12 4 -11 23 -8 99 15 95 29
119 32 119 14z m2673 -44 c3 -5 15 -7 25 -4 22 6 33 -7 22 -26 -7 -11 -14 -11
-37 0 -15 8 -29 20 -32 27 -4 14 14 17 22 3z m-2594 -172 c0 -5 -43 -29 -95
-53 -52 -25 -95 -49 -95 -53 0 -5 6 -18 14 -28 12 -16 18 -18 40 -7 24 11 27
9 46 -29 19 -37 44 -58 56 -46 3 2 -5 21 -16 40 -24 41 -20 71 12 88 26 14 68
3 68 -17 0 -12 -7 -14 -30 -9 -38 8 -49 -14 -26 -50 32 -49 83 -17 89 55 4 54
27 50 27 -5 0 -38 -5 -52 -29 -76 -16 -16 -38 -29 -49 -29 -11 0 -25 -7 -32
-15 -23 -28 -55 -18 -79 25 -12 22 -26 40 -31 40 -21 0 -18 -21 11 -74 21 -38
28 -61 21 -68 -6 -6 -28 25 -64 92 l-55 102 -22 -28 c-14 -18 -20 -35 -16 -49
17 -55 -4 -76 -25 -25 -12 28 -10 35 19 81 23 38 29 55 21 64 -15 19 4 29 28
14 15 -9 34 -3 107 34 86 43 105 48 105 26z m2610 -23 c0 -8 -12 -23 -27 -35
-23 -16 -26 -23 -17 -38 16 -26 30 -22 56 17 20 29 30 35 58 35 32 0 35 -2 34
-30 -1 -16 -5 -40 -9 -52 -11 -34 19 -30 34 5 21 46 41 73 51 67 13 -8 -71
-175 -87 -175 -16 0 -16 5 -3 31 9 16 7 21 -15 29 -30 11 -30 10 -8 55 13 26
14 38 5 47 -8 8 -16 2 -33 -26 -12 -20 -29 -40 -38 -45 -25 -13 -62 6 -74 39
-8 21 -16 29 -27 24 -63 -26 -70 -4 -6 24 24 11 47 25 50 31 10 16 56 14 56
-3z m-15 -197 c4 -6 -7 -28 -24 -49 -17 -21 -31 -49 -31 -60 0 -12 -8 -35 -17
-51 -16 -26 -16 -31 -3 -39 8 -5 17 -10 20 -10 3 0 35 38 70 84 57 75 90 103
90 78 0 -4 -43 -61 -95 -127 -52 -66 -95 -123 -95 -127 0 -12 53 12 77 34 13
12 26 19 29 15 13 -12 -6 -38 -38 -52 l-33 -14 29 -1 c16 0 37 7 47 16 29 26
47 12 20 -15 -21 -21 -30 -23 -92 -19 -51 4 -72 2 -80 -8 -15 -18 -31 -7 -24
15 4 14 -15 32 -80 76 -47 32 -85 62 -85 66 0 23 26 13 101 -41 46 -33 88 -60
94 -60 5 0 18 12 29 26 19 26 19 26 -10 49 l-28 22 22 28 c28 36 28 61 -2 80
-19 13 -28 14 -50 4 -30 -14 -32 -21 -11 -53 14 -21 14 -25 -1 -37 -14 -12
-19 -10 -39 13 -12 14 -33 28 -46 30 -35 4 -29 22 7 26 17 2 42 14 55 28 24
26 66 32 100 13 17 -8 23 -7 34 8 9 11 10 22 4 28 -5 5 -9 15 -9 22 0 16 56
18 65 2z m-2397 -91 c-7 -19 -38 -22 -38 -4 0 10 9 16 21 16 12 0 19 -5 17
-12z m46 -55 c3 -4 -28 -42 -71 -85 -76 -77 -77 -77 -58 -98 l19 -21 77 77
c48 48 81 74 89 69 8 -5 -14 -33 -66 -86 -75 -75 -77 -79 -59 -93 18 -13 22
-12 45 16 18 21 35 30 60 31 34 2 35 4 40 46 7 63 30 67 30 5 0 -35 6 -54 21
-70 23 -24 20 -54 -5 -54 -7 0 -21 11 -30 25 -19 29 -51 32 -84 9 -25 -18 -29
-46 -7 -64 25 -20 48 -4 42 29 -7 34 1 45 20 30 20 -17 16 -67 -7 -81 -18 -11
-18 -14 -3 -30 10 -12 13 -22 7 -28 -6 -6 -59 35 -142 112 -92 82 -130 124
-123 131 7 7 14 7 24 -1 10 -9 29 5 87 63 76 76 81 80 94 68z m2052 -154 c48
-12 61 -39 18 -39 -21 0 -25 -4 -22 -22 2 -12 15 -29 29 -37 24 -13 28 -12 62
13 62 48 50 10 -17 -48 -35 -31 -66 -56 -70 -56 -12 0 -6 28 9 40 14 11 12 16
-16 40 -26 21 -31 31 -27 58 4 31 4 31 -49 38 -29 3 -53 10 -53 15 0 13 83 11
136 -2z m-1754 -206 c24 -21 23 -68 -2 -93 -58 -58 -142 20 -94 88 18 27 69
30 96 5z m1588 -3 c40 -40 11 -110 -45 -110 -54 0 -85 71 -48 112 21 24 68 23
93 -2z"/>
<path d="M1783 3623 c-16 -6 -17 -35 -1 -51 14 -14 64 -16 72 -3 7 11 -32 61
-47 60 -7 0 -18 -3 -24 -6z"/>
<path d="M1694 3514 c3 -9 6 -27 6 -40 0 -21 4 -24 41 -24 38 0 41 2 35 23 -3
12 -6 30 -6 40 0 13 -9 17 -41 17 -33 0 -40 -3 -35 -16z"/>
<path d="M2272 3568 c-25 -25 -13 -47 31 -58 23 -6 55 -15 71 -21 39 -12 43
-6 16 28 -42 54 -93 76 -118 51z"/>
<path d="M2318 3399 c-22 -12 -23 -52 -3 -69 8 -7 25 -10 39 -6 33 8 43 42 20
67 -19 21 -31 23 -56 8z"/>
<path d="M1027 3294 l-67 -45 22 -29 c34 -44 49 -37 77 33 6 15 23 33 38 39
16 7 30 13 32 15 5 4 -20 33 -28 32 -3 0 -36 -21 -74 -45z"/>
<path d="M1100 3262 c-40 -32 -3 -84 49 -67 26 8 34 45 14 67 -20 23 -35 23
-63 0z"/>
<path d="M2096 3105 c5 -11 9 -46 9 -77 0 -44 -5 -63 -23 -88 -13 -17 -21 -34
-19 -37 3 -3 18 14 33 37 35 53 40 139 10 168 -18 16 -18 16 -10 -3z"/>
<path d="M2198 3035 c-10 -22 -8 -29 11 -49 26 -27 25 -59 -2 -64 -12 -3 -20
4 -24 18 -4 16 -8 18 -14 9 -11 -18 8 -39 35 -39 47 0 61 48 25 86 -23 25 -20
54 7 54 9 0 18 -9 21 -21 4 -15 8 -17 14 -8 11 18 -9 39 -37 39 -16 0 -28 -8
-36 -25z"/>
<path d="M1817 3032 c-9 -10 -17 -31 -17 -45 0 -15 -4 -27 -10 -27 -5 0 -10
11 -10 24 0 51 -30 77 -44 40 -5 -14 -9 -14 -22 -3 -14 11 -18 11 -28 -4 -10
-12 -15 -14 -24 -5 -9 9 -15 9 -24 -1 -10 -11 -10 -12 -1 -7 9 5 15 -6 19 -34
8 -50 22 -52 26 -2 4 46 22 49 26 5 4 -38 22 -45 22 -9 0 31 10 56 21 56 5 0
9 -10 9 -22 0 -37 12 -45 60 -44 39 1 46 4 54 29 18 50 -24 86 -57 49z m41
-36 c-4 -37 -31 -43 -36 -8 -5 34 5 53 23 46 11 -5 15 -16 13 -38z"/>
<path d="M1897 3008 c7 -55 17 -66 42 -44 15 14 19 14 24 3 6 -15 62 -28 85
-20 19 8 14 41 -8 53 -24 13 -26 30 -5 30 8 0 15 -5 15 -11 0 -5 5 -7 10 -4 6
4 8 11 5 16 -9 14 -41 11 -54 -5 -10 -11 -7 -19 15 -39 19 -18 23 -27 14 -32
-8 -5 -18 -1 -25 8 -9 12 -14 14 -23 5 -9 -9 -12 0 -12 37 0 52 -8 53 -26 2
-16 -47 -34 -46 -34 2 0 29 -4 41 -14 41 -11 0 -13 -10 -9 -42z"/>
<path d="M1575 2996 c-13 -9 -16 -22 -13 -49 5 -46 -13 -49 -33 -6 -17 37 -30
40 -45 10 -10 -19 -12 -20 -18 -6 -3 9 -10 14 -15 11 -5 -3 1 -25 13 -48 l21
-43 3 40 c5 55 18 64 32 21 11 -36 27 -45 46 -27 5 5 20 11 34 13 21 2 26 9
28 40 4 44 -23 66 -53 44z m33 -18 c15 -15 16 -45 2 -53 -16 -10 -40 15 -40
41 0 26 19 31 38 12z"/>
<path d="M2385 2980 c4 -6 11 -8 16 -5 14 9 11 15 -7 15 -8 0 -12 -5 -9 -10z"/>
<path d="M2282 2964 c-30 -20 -30 -70 -1 -79 12 -4 26 -2 31 3 7 7 4 10 -8 9
-24 -2 -31 44 -10 62 13 11 17 10 22 -3 8 -20 24 -21 24 -2 0 8 -7 17 -16 20
-20 8 -16 9 -42 -10z"/>
<path d="M2346 2910 c-20 -50 -20 -50 0 -50 8 0 12 4 9 10 -3 5 1 23 10 39 17
35 18 41 6 41 -5 0 -16 -18 -25 -40z"/>
<path d="M1295 2900 c4 -19 11 -38 16 -44 5 -6 18 -22 28 -36 19 -24 21 -24
37 -8 16 16 16 17 -2 12 -27 -7 -53 38 -35 60 10 12 9 14 -8 9 -15 -4 -21 -1
-21 10 0 9 -5 19 -11 23 -8 4 -9 -3 -4 -26z"/>
<path d="M1382 2918 c-18 -18 -15 -53 6 -71 26 -23 41 -21 54 8 22 49 -25 98
-60 63z m44 -23 c17 -26 12 -45 -11 -45 -18 0 -38 37 -31 56 8 21 24 17 42
-11z"/>
<path d="M2396 2901 c-25 -28 -17 -66 14 -68 14 -1 18 1 8 3 -21 6 -32 34 -15
39 29 8 77 14 77 8 0 -3 -9 -21 -21 -39 -24 -39 -18 -43 18 -14 25 19 53 27
53 14 0 -3 -9 -17 -20 -31 -20 -25 -19 -43 2 -43 6 0 8 3 5 7 -4 3 3 22 15 41
23 37 14 54 -23 45 -13 -4 -18 -1 -14 8 3 8 -7 21 -26 32 -39 22 -52 22 -73
-2z m49 -1 c3 -5 -3 -10 -15 -10 -12 0 -18 5 -15 10 3 6 10 10 15 10 5 0 12
-4 15 -10z"/>
<path d="M1730 2879 c-92 -16 -246 -74 -331 -125 -93 -57 -209 -160 -275 -245
-148 -193 -223 -456 -197 -692 57 -504 470 -877 973 -877 367 0 693 197 865
523 205 389 124 862 -201 1165 -45 42 -118 99 -163 126 -89 54 -241 109 -341
125 -77 13 -253 12 -330 0z m343 -33 c298 -57 536 -239 672 -511 76 -152 99
-251 98 -425 -1 -165 -27 -279 -96 -417 -164 -325 -484 -523 -847 -523 -434 0
-806 288 -918 709 -21 81 -25 118 -25 236 0 119 4 155 26 237 93 352 381 622
736 693 89 18 263 18 354 1z"/>
<path d="M1596 2556 c-20 -53 -71 -97 -132 -114 l-41 -12 26 -52 c31 -62 33
-143 8 -294 -30 -180 6 -234 233 -349 72 -37 144 -78 160 -92 l29 -24 43 29
c24 16 99 56 168 89 136 64 188 103 215 159 15 32 16 57 10 213 -7 165 -6 181
13 223 11 25 25 49 31 52 20 13 12 24 -26 37 -55 18 -121 89 -129 139 -4 22
-10 40 -15 40 -5 0 -9 -4 -9 -8 0 -12 -86 -34 -138 -35 -29 0 -65 8 -95 23
l-47 22 -49 -21 c-67 -28 -89 -27 -217 14 -18 5 -23 0 -38 -39z m312 -49 c2
-28 -1 -37 -12 -37 -12 0 -16 11 -16 41 0 52 24 48 28 -4z m-48 -23 c0 -14 -4
-23 -10 -19 -5 3 -10 15 -10 26 0 10 5 19 10 19 6 0 10 -12 10 -26z m100 9
c-1 -18 -18 -35 -24 -24 -4 6 -4 16 -1 21 7 12 25 13 25 3z m-190 -28 c35 -37
14 -44 -23 -7 -22 22 -27 32 -16 32 9 0 26 -11 39 -25z m49 -1 c3 -16 1 -17
-13 -5 -19 16 -21 34 -3 29 6 -3 14 -13 16 -24z m181 1 c0 -8 -7 -15 -15 -15
-16 0 -20 12 -8 23 11 12 23 8 23 -8z m70 2 c0 -20 -47 -60 -60 -52 -8 5 -3
16 16 36 30 32 44 36 44 16z m-319 -53 c12 -14 11 -16 -5 -13 -11 2 -21 10
-24 17 -5 17 13 15 29 -4z m69 -51 c0 -38 -10 -55 -26 -42 -17 14 -18 43 -3
71 9 17 13 18 20 7 5 -8 9 -24 9 -36z m170 3 c0 -17 -5 -38 -10 -46 -9 -13
-11 -13 -20 0 -11 17 -12 36 -4 67 9 32 34 17 34 -21z m80 34 c0 -12 -28 -25
-36 -17 -9 9 6 27 22 27 8 0 14 -5 14 -10z m-162 -34 c2 -16 1 -40 -3 -53 -5
-20 -8 -23 -20 -13 -15 13 -21 81 -8 94 13 13 28 -1 31 -28z m-173 -7 c-4 -5
-14 -5 -26 1 -11 6 -17 15 -14 21 4 5 14 5 26 -1 11 -6 17 -15 14 -21z m345
-4 c0 -9 -9 -15 -21 -15 -18 0 -19 2 -9 15 7 8 16 15 21 15 5 0 9 -7 9 -15z
m-350 -35 c0 -5 -18 -10 -40 -10 -22 0 -40 5 -40 10 0 6 18 10 40 10 22 0 40
-4 40 -10z m400 -5 c0 -11 -11 -15 -40 -15 -38 0 -49 8 -33 23 3 4 21 7 40 7
23 0 33 -5 33 -15z m-390 -24 c0 -9 -24 -21 -41 -21 -16 0 -10 18 9 23 28 8
32 7 32 -2z m334 -20 c3 -4 3 -11 0 -14 -8 -8 -34 3 -34 14 0 11 27 12 34 0z
m-324 -30 c0 -10 -30 -24 -37 -17 -3 3 -2 9 2 15 8 13 35 15 35 2z m300 -17
c0 -9 -5 -14 -12 -12 -18 6 -21 28 -4 28 9 0 16 -7 16 -16z m-295 -39 c-46
-38 -64 -30 -25 10 23 24 37 32 44 25 7 -7 1 -18 -19 -35z m285 3 c52 -38 31
-55 -21 -17 -29 20 -38 39 -19 39 6 0 24 -10 40 -22z m-232 -10 c-6 -18 -28
-21 -28 -4 0 9 7 16 16 16 9 0 14 -5 12 -12z m182 -9 c0 -5 -7 -9 -15 -9 -15
0 -20 12 -9 23 8 8 24 -1 24 -14z m-140 -3 c0 -15 -18 -31 -26 -23 -7 7 7 37
17 37 5 0 9 -6 9 -14z m100 -11 c0 -8 -4 -15 -10 -15 -5 0 -10 7 -10 15 0 8 5
15 10 15 6 0 10 -7 10 -15z m-80 -64 c0 -6 -24 -11 -52 -13 -29 -2 -53 -7 -54
-13 -1 -12 -10 -38 -30 -83 -18 -43 -18 -43 12 -32 14 6 41 10 60 10 22 0 33
4 29 11 -4 6 -14 8 -22 5 -8 -3 -12 -2 -9 2 3 4 -4 13 -15 20 -16 10 -19 9
-19 -7 0 -20 -17 -37 -27 -27 -3 3 -1 11 4 18 6 7 16 29 22 49 11 34 14 36 52
36 l40 0 -3 -66 -3 -66 -57 -2 c-56 -2 -98 -16 -98 -32 0 -5 8 -8 18 -6 55 11
116 14 102 5 -8 -5 -10 -10 -4 -10 5 0 15 5 21 11 8 8 16 8 30 0 12 -7 14 -10
4 -11 -8 0 -22 -7 -30 -14 -11 -10 -51 -17 -111 -21 -52 -4 -98 -9 -102 -12
-28 -16 -20 21 23 107 27 56 49 104 49 109 0 5 17 15 38 24 41 17 132 22 132
8z m154 -6 c15 -8 34 -15 40 -15 7 0 28 -39 46 -87 19 -49 40 -98 48 -111 8
-12 13 -25 10 -27 -3 -3 -52 -1 -110 4 -85 7 -110 13 -126 29 -20 20 -20 20
-1 25 10 3 19 1 19 -4 0 -5 5 -9 11 -9 5 0 8 4 5 9 -4 5 10 5 32 0 20 -5 48
-9 62 -9 22 0 23 1 8 16 -9 9 -41 18 -77 21 -63 6 -67 8 -52 32 6 9 11 10 15
2 9 -14 56 -15 56 -1 0 6 -10 11 -22 11 -17 1 -19 2 -5 6 30 8 18 20 -18 17
-34 -2 -35 -2 -35 36 0 21 6 41 13 43 7 3 4 6 -6 6 -10 1 -15 6 -12 11 9 15
66 12 99 -5z"/>
<path d="M1736 2062 c-19 -31 -74 -172 -67 -172 14 0 37 41 59 109 20 58 23
88 8 63z"/>
<path d="M1805 2030 c13 -12 17 -12 30 0 13 13 11 15 -15 15 -26 0 -27 -2 -15
-15z"/>
<path d="M1968 2073 c7 -3 16 -2 19 1 4 3 -2 6 -13 5 -11 0 -14 -3 -6 -6z"/>
<path d="M2054 1993 c23 -70 45 -118 52 -111 6 7 -58 178 -66 178 -4 0 2 -30
14 -67z"/>
<path d="M2020 2011 c5 -11 10 -28 10 -39 0 -11 6 -22 14 -25 12 -5 12 1 -1
39 -8 24 -19 44 -24 44 -6 0 -5 -8 1 -19z"/>
<path d="M1411 2290 c-51 -70 -88 -150 -110 -238 -24 -94 -26 -154 -6 -237 8
-32 13 -61 11 -63 -2 -2 -19 4 -37 13 -38 20 -149 33 -149 18 0 -6 26 -30 58
-54 l57 -44 -73 -6 c-50 -4 -81 -11 -99 -25 -42 -31 -40 -43 6 -37 70 10 159
-19 285 -92 27 -15 64 -29 82 -30 24 -2 47 -14 78 -43 185 -171 508 -173 744
-5 32 23 58 33 82 33 23 -1 72 19 148 57 107 55 116 58 187 58 41 0 75 3 75 6
0 3 -11 16 -25 29 -21 20 -39 25 -96 28 -38 3 -69 8 -67 12 2 4 27 27 57 51
48 37 52 43 35 50 -28 10 -104 -6 -146 -31 l-35 -20 18 77 c24 99 24 158 -1
256 -21 83 -88 223 -121 253 -32 29 -30 11 5 -39 49 -69 86 -159 103 -250 14
-83 13 -117 -9 -240 -12 -66 -13 -67 -54 -83 -40 -15 -42 -15 -79 10 -21 14
-45 26 -53 26 -8 0 -47 -31 -87 -69 -45 -42 -98 -81 -141 -102 -62 -31 -77
-34 -154 -34 -75 0 -93 4 -150 31 -36 17 -103 64 -149 103 -88 75 -103 79
-157 44 -18 -12 -26 -10 -67 12 -41 23 -47 31 -57 78 -15 73 -13 211 5 280 18
68 63 162 100 205 15 18 25 37 23 44 -3 7 -19 -8 -37 -32z m120 -657 c15 -17
154 -123 163 -123 3 0 3 8 -1 18 -4 12 -3 14 5 7 15 -14 26 -65 15 -65 -6 0
-15 -11 -21 -25 -6 -14 -17 -25 -23 -25 -7 0 -5 9 5 25 9 13 16 30 16 37 0 7
-8 1 -18 -14 -9 -16 -20 -28 -25 -28 -11 0 3 43 17 52 6 4 7 10 4 14 -8 8 -38
-20 -38 -35 0 -6 -4 -11 -10 -11 -5 0 -10 13 -10 30 0 23 3 28 16 23 12 -4 15
-2 12 8 -8 24 -34 21 -48 -6 -15 -27 -36 -35 -26 -9 4 10 -1 22 -11 29 -15 11
-15 15 -4 29 8 9 11 19 9 22 -3 3 -15 -7 -27 -22 -12 -15 -24 -24 -28 -21 -3
4 0 13 6 21 7 8 10 20 6 26 -11 17 -25 11 -25 -12 0 -16 -3 -19 -11 -11 -8 8
-8 17 0 32 13 23 26 27 36 11 3 -5 11 -10 17 -10 6 0 1 11 -12 25 -13 14 -19
25 -13 25 6 0 17 -8 24 -17z m757 -46 c23 -35 28 -52 12 -42 -5 3 -19 1 -31
-5 -17 -10 -21 -8 -26 9 -6 23 -18 27 -28 10 -4 -6 3 -21 16 -35 25 -27 19
-45 -7 -23 -13 11 -18 11 -21 2 -6 -18 -33 -16 -33 2 0 8 -4 15 -10 15 -14 0
-12 -22 5 -44 17 -22 19 -36 6 -36 -5 0 -14 14 -21 30 -7 17 -16 30 -21 30
-12 0 -11 -7 1 -31 8 -15 7 -19 -5 -19 -8 0 -15 7 -15 15 0 8 -4 15 -10 15
-13 0 -13 -6 5 -40 9 -17 11 -30 6 -30 -11 0 -37 41 -33 53 3 10 -6 9 -29 -3
-10 -6 -19 -16 -19 -22 0 -9 3 -9 12 0 16 16 29 15 22 -2 -3 -8 -1 -17 5 -21
6 -3 11 -11 11 -17 0 -6 -10 -3 -22 8 -21 19 -21 19 -15 -4 3 -15 1 -22 -6
-19 -7 2 -13 16 -15 30 -2 15 -8 27 -13 27 -6 0 -7 -14 -3 -35 4 -23 2 -35 -5
-35 -6 0 -11 10 -11 23 0 12 -5 29 -11 37 -8 11 -9 4 -6 -27 5 -42 5 -43 -21
-36 -15 3 -31 11 -35 17 -6 8 -10 7 -14 -1 -8 -20 -37 -15 -51 8 -7 12 -10 24
-7 27 4 4 11 -1 16 -11 12 -21 31 -23 23 -2 -4 11 1 15 17 15 18 0 20 3 10 9
-10 6 -5 11 19 16 23 5 29 10 19 16 -7 4 -11 11 -7 14 3 4 18 -1 32 -10 25
-17 26 -17 26 3 0 27 29 44 53 31 26 -15 57 -2 54 23 -1 11 4 23 11 25 7 3 10
-1 6 -11 -11 -28 14 -17 73 33 32 28 60 50 63 50 3 1 15 -14 28 -32z m-496
-125 c43 -16 45 -19 32 -37 -8 -10 -14 -27 -14 -37 0 -10 -5 -18 -10 -18 -7 0
-8 13 -4 35 8 43 -3 46 -17 5 -12 -34 -34 -42 -24 -8 6 16 4 20 -8 15 -17 -6
-32 19 -17 28 5 3 7 12 3 20 -7 19 2 19 59 -3z"/>
<path d="M1576 1561 c-4 -5 -2 -12 3 -15 5 -4 12 -2 15 3 4 5 2 12 -3 15 -5 4
-12 2 -15 -3z"/>
<path d="M2250 1584 c0 -17 17 -36 24 -26 3 5 -1 15 -9 22 -8 7 -15 9 -15 4z"/>
<path d="M2180 1530 c0 -5 5 -10 10 -10 6 0 10 5 10 10 0 6 -4 10 -10 10 -5 0
-10 -4 -10 -10z"/>
<path d="M2025 1480 c-3 -5 1 -10 9 -10 9 0 16 5 16 10 0 6 -4 10 -9 10 -6 0
-13 -4 -16 -10z"/>
<path d="M1937 1411 c-3 -12 -1 -21 3 -21 14 0 19 15 11 29 -6 9 -10 7 -14 -8z"/>
<path d="M1755 1440 c3 -5 8 -10 11 -10 2 0 4 5 4 10 0 6 -5 10 -11 10 -5 0
-7 -4 -4 -10z"/>
<path d="M1265 2833 c14 -33 18 -73 6 -73 -6 0 -11 3 -11 8 -1 16 -38 54 -48
49 -6 -4 4 -22 23 -43 34 -37 55 -38 55 -4 0 13 5 17 19 13 10 -3 22 1 26 8 5
7 4 10 -3 6 -5 -4 -22 6 -35 23 -29 33 -43 39 -32 13z"/>
<path d="M2554 2797 c-23 -20 -25 -26 -15 -45 7 -13 21 -22 34 -21 l22 0 -22
9 c-28 11 -29 21 -5 50 20 25 42 20 42 -8 0 -13 2 -14 13 -3 10 10 8 15 -7 27
-26 19 -30 18 -62 -9z"/>
<path d="M1107 2803 c-2 -5 8 -44 21 -88 14 -44 27 -72 29 -63 3 9 0 26 -6 36
-8 15 -6 23 8 37 18 15 21 15 45 0 14 -9 30 -14 36 -10 15 9 12 25 -3 19 -7
-2 -37 14 -67 36 -59 44 -57 43 -63 33z m53 -53 c0 -9 -19 -24 -24 -19 -2 2
-7 15 -11 27 -6 22 -5 23 14 13 12 -7 21 -16 21 -21z"/>
<path d="M2614 2745 c-20 -20 -23 -28 -14 -45 6 -11 18 -20 27 -20 15 0 14 2
-2 14 -11 8 -16 19 -12 29 5 14 10 15 32 5 33 -15 56 2 35 27 -18 22 -37 19
-66 -10z m54 -10 c-3 -3 -13 -2 -22 1 -14 5 -15 9 -4 15 13 8 36 -6 26 -16z"/>
<path d="M2721 2684 c-19 -16 -31 -35 -31 -50 0 -28 32 -64 58 -64 12 0 10 4
-8 13 -38 19 -38 58 0 91 17 14 38 26 45 26 22 0 47 -31 42 -52 -4 -16 -3 -17
9 -7 7 6 11 16 7 23 -30 53 -75 60 -122 20z"/>
<path d="M905 2590 c30 -33 123 -93 134 -86 16 10 13 26 -4 20 -8 -4 -39 13
-73 40 -60 48 -88 60 -57 26z"/>
<path d="M1070 2582 c0 -5 7 -13 16 -16 10 -4 14 -1 12 6 -5 15 -28 23 -28 10z"/>
<path d="M2772 2568 c-16 -16 -15 -43 3 -58 34 -28 102 22 74 56 -14 17 -60
19 -77 2z m68 -10 c0 -16 -30 -48 -46 -48 -22 0 -27 21 -8 41 19 21 54 26 54
7z"/>
<path d="M2887 2516 c-76 -43 -85 -52 -68 -68 10 -10 12 -10 7 -1 -4 8 18 25
63 50 39 21 71 41 71 46 0 12 -13 8 -73 -27z"/>
<path d="M926 2504 c-7 -18 18 -64 34 -64 6 0 10 -7 10 -15 0 -8 -4 -15 -8
-15 -7 0 -61 31 -129 73 -7 5 -13 4 -13 -2 0 -5 14 -18 30 -28 26 -15 30 -22
25 -45 -7 -32 23 -68 56 -68 19 0 21 4 15 30 -5 25 -3 30 11 28 11 -2 19 5 21
17 2 11 10 24 18 28 8 4 14 18 13 30 0 22 0 22 -10 -1 -13 -34 -35 -22 -31 16
3 26 0 32 -16 32 -11 0 -23 -7 -26 -16z m29 -24 c-5 -8 -11 -8 -17 -2 -6 6 -7
16 -3 22 5 8 11 8 17 2 6 -6 7 -16 3 -22z m-31 -82 c21 -30 20 -38 -4 -38 -21
0 -45 34 -35 50 10 16 23 12 39 -12z"/>
<path d="M2901 2464 c-39 -19 -71 -39 -71 -44 0 -15 18 -20 23 -7 3 7 35 26
71 43 36 16 66 32 66 37 0 13 -16 8 -89 -29z"/>
<path d="M2890 2413 c-27 -10 -40 -34 -29 -54 5 -11 15 -19 21 -19 7 0 6 5 -2
15 -21 26 4 43 29 21 20 -18 51 -16 51 3 0 10 -40 42 -50 40 -3 0 -12 -3 -20
-6z m50 -23 c0 -5 -7 -10 -15 -10 -8 0 -15 5 -15 10 0 6 7 10 15 10 8 0 15 -4
15 -10z"/>
<path d="M833 2324 c-8 -21 7 -46 35 -59 21 -9 31 -35 14 -35 -5 0 -32 7 -61
16 -29 8 -57 14 -63 12 -6 -2 11 -22 37 -44 l48 -39 -59 -10 c-40 -7 -60 -16
-62 -26 -2 -12 3 -15 21 -12 14 3 46 -5 72 -16 55 -24 55 -24 55 -11 0 6 -20
15 -45 22 -59 16 -57 28 5 28 28 0 50 3 50 8 0 4 -19 20 -41 36 -47 33 -45 43
5 26 38 -12 56 -7 56 16 0 8 7 25 15 37 13 20 13 25 -1 45 -18 27 -71 30 -81
6z m62 -8 c11 -8 16 -19 12 -30 -8 -21 -20 -20 -48 4 -21 17 -22 21 -9 30 20
13 23 13 45 -4z"/>
<path d="M2906 2325 c-12 -9 -29 -12 -44 -8 -43 10 -50 -37 -11 -73 28 -25 49
-11 49 33 1 36 2 37 15 19 9 -11 29 -21 49 -22 30 -3 33 -1 28 19 -11 48 -47
61 -86 32z m64 -15 c0 -13 -7 -20 -18 -20 -26 0 -34 11 -21 27 17 20 39 16 39
-7z m-92 -33 c2 -19 -1 -27 -13 -27 -19 0 -30 24 -21 46 9 23 31 11 34 -19z"/>
<path d="M2932 2238 c-16 -16 -15 -43 3 -58 17 -14 21 0 4 17 -8 8 -4 16 16
29 25 16 27 16 43 -1 16 -17 16 -17 -7 -12 -22 5 -23 5 -9 -10 16 -15 38 -11
38 7 0 32 -64 52 -88 28z"/>
<path d="M2922 2108 c17 -10 48 -10 48 0 0 5 -14 9 -30 9 -20 0 -26 -3 -18 -9z"/>
<path d="M700 2095 c21 -25 88 -55 127 -55 35 0 83 18 83 32 0 11 -17 10 -24
-1 -18 -29 -119 -17 -170 20 -24 17 -27 18 -16 4z"/>
<path d="M3090 2052 c0 -8 -18 -12 -52 -12 -29 0 -60 -5 -68 -10 -10 -7 7 -10
57 -10 71 0 96 11 74 33 -8 8 -11 8 -11 -1z"/>
<path d="M760 1990 c0 -9 5 -21 12 -28 9 -9 9 -12 0 -12 -7 0 -12 -6 -12 -13
0 -9 12 -11 40 -9 31 3 40 1 40 -11 0 -11 -12 -17 -37 -19 -30 -2 -39 -8 -41
-24 -2 -11 4 -27 13 -34 10 -8 15 -9 15 -1 0 6 -4 11 -10 11 -5 0 -10 7 -10
15 0 8 7 15 15 15 8 0 15 -5 15 -10 0 -6 11 -21 25 -34 21 -20 23 -25 11 -35
-11 -9 -19 -9 -35 1 -33 20 -49 -4 -20 -31 l23 -21 -35 -1 c-19 -1 -45 -5 -59
-9 -21 -7 -17 -8 21 -9 65 -1 140 10 133 20 -3 5 -15 9 -27 9 l-22 0 22 18
c21 16 28 71 11 87 -3 4 -4 22 -1 41 5 30 3 35 -23 44 -16 6 -37 21 -46 33
-13 16 -18 18 -18 7z m78 -129 c3 -8 -1 -12 -9 -9 -7 2 -15 10 -17 17 -3 8 1
12 9 9 7 -2 15 -10 17 -17z m-28 -81 c0 -5 -4 -10 -9 -10 -6 0 -13 5 -16 10
-3 6 1 10 9 10 9 0 16 -4 16 -10z"/>
<path d="M3040 1991 c0 -6 -19 -11 -42 -12 l-43 0 43 -19 c53 -24 54 -40 2
-40 -38 0 -52 -12 -30 -25 6 -3 10 -1 10 5 0 6 10 10 23 9 41 -4 57 1 57 16 0
9 -7 18 -15 21 -8 4 -15 10 -15 15 0 5 7 9 15 9 17 0 20 16 5 25 -5 3 -10 1
-10 -4z"/>
<path d="M2963 1865 c-3 -9 3 -25 12 -35 16 -18 17 -20 2 -20 -10 0 -17 -8
-17 -17 0 -13 3 -14 8 -5 7 10 24 9 86 -1 42 -8 79 -10 81 -6 7 10 -21 19 -56
19 -26 0 -29 3 -24 19 13 42 -76 86 -92 46z m77 -24 c7 -14 7 -22 0 -26 -12
-8 -60 21 -60 35 0 18 49 10 60 -9z"/>
<path d="M2957 1763 c-4 -3 -7 -17 -7 -29 0 -27 30 -47 63 -42 29 4 36 47 11
65 -19 14 -56 17 -67 6z m71 -36 c3 -15 -2 -18 -30 -15 -22 2 -34 9 -36 21 -3
15 2 18 30 15 22 -2 34 -9 36 -21z"/>
<path d="M853 1715 c-7 -8 -43 -17 -83 -21 -38 -3 -70 -11 -70 -16 0 -11 78
-3 142 13 27 7 36 14 32 24 -7 18 -6 18 -21 0z"/>
<path d="M2930 1677 c0 -3 16 -15 35 -27 19 -12 35 -28 35 -36 0 -8 5 -14 10
-14 14 0 13 13 -2 28 -9 9 -8 12 5 12 26 0 20 25 -5 26 -13 0 -35 4 -50 8 -16
5 -28 6 -28 3z"/>
<path d="M810 1650 c-17 -17 -18 -24 -9 -41 9 -18 18 -20 50 -16 61 8 49 -18
-21 -44 -33 -12 -60 -26 -60 -31 0 -8 18 -5 56 9 12 4 37 -44 29 -58 -4 -5
-12 -9 -19 -9 -20 0 -36 -24 -27 -39 7 -10 9 -10 14 2 3 7 33 24 66 37 33 12
59 26 56 30 -3 5 -19 3 -36 -3 -27 -11 -32 -10 -45 7 -21 30 -17 43 16 55 30
10 40 34 19 46 -6 4 -8 13 -5 21 7 17 -27 54 -49 54 -8 0 -24 -9 -35 -20z m70
-15 c0 -18 -37 -38 -56 -31 -17 7 -18 33 -1 39 26 11 57 7 57 -8z"/>
<path d="M2914 1596 c-3 -8 -4 -23 -1 -33 4 -14 5 -13 6 5 1 15 7 22 21 22 11
0 20 -4 20 -10 0 -5 5 -9 11 -7 6 1 14 -4 17 -12 3 -10 0 -12 -12 -8 -10 4
-16 1 -16 -9 0 -22 34 -13 38 9 8 41 -70 80 -84 43z"/>
<path d="M2855 1493 c57 -7 74 -13 107 -39 30 -24 30 -23 -4 10 -33 32 -43 36
-85 35 -31 -1 -38 -3 -18 -6z"/>
<path d="M2860 1462 c0 -6 15 -20 33 -32 l32 -22 -42 6 c-49 7 -51 4 -23 -31
26 -33 18 -41 -16 -18 -26 17 -28 17 -41 -1 -7 -10 -13 -22 -13 -28 0 -5 6 -1
14 9 13 18 15 17 60 -9 26 -15 49 -26 52 -24 2 3 -10 23 -27 46 l-30 41 49 -6
c32 -3 52 -1 56 6 4 7 0 11 -11 11 -10 0 -35 14 -56 31 -20 17 -37 26 -37 21z"/>
<path d="M967 1423 c-4 -6 0 -16 8 -23 8 -7 15 -18 15 -26 0 -17 -37 -37 -56
-30 -8 3 -14 -1 -14 -8 0 -7 -10 -18 -22 -25 -21 -10 -20 -11 10 -6 32 5 102
50 102 66 0 4 -5 11 -11 14 -6 4 -14 16 -18 28 -5 12 -10 16 -14 10z"/>
<path d="M2770 1311 c0 -5 7 -14 15 -21 9 -7 12 -22 9 -39 -10 -49 41 -68 64
-24 8 15 0 25 -39 56 -27 20 -49 33 -49 28z m70 -66 c10 -12 10 -19 2 -27 -13
-13 -42 6 -42 28 0 19 24 18 40 -1z"/>
<path d="M957 1303 c-4 -3 -7 -13 -7 -22 0 -13 2 -13 13 1 6 9 21 18 32 21 16
4 15 5 -6 6 -14 0 -29 -2 -32 -6z"/>
<path d="M1003 1278 c-12 -17 -19 -36 -16 -41 3 -5 10 -1 16 9 5 11 19 29 30
42 15 16 17 22 6 22 -8 0 -24 -15 -36 -32z"/>
<path d="M1024 1236 c-13 -21 -14 -29 -4 -41 29 -35 107 5 84 43 -18 28 -60
27 -80 -2z m66 -4 c0 -23 -19 -42 -42 -42 -23 0 -24 36 0 49 26 16 42 13 42
-7z"/>
<path d="M2680 1227 c0 -4 7 -21 15 -38 23 -43 105 -90 105 -59 0 6 -8 10 -18
10 -25 0 -61 27 -83 64 -10 17 -19 27 -19 23z"/>
<path d="M1106 1181 c-15 -17 -15 -19 1 -32 9 -8 14 -9 10 -3 -4 7 0 17 8 24
20 16 45 -3 45 -35 0 -24 -51 -75 -75 -75 -23 0 -47 31 -41 53 5 19 4 19 -12
3 -16 -16 -15 -19 11 -42 37 -32 72 -31 108 5 34 35 36 59 8 95 -24 31 -40 33
-63 7z"/>
<path d="M1475 835 l0 -55 41 0 c33 0 43 4 47 20 3 11 1 20 -4 20 -5 0 -9 -4
-9 -10 0 -5 -11 -10 -25 -10 -16 0 -25 6 -25 16 0 10 6 14 15 10 10 -4 15 1
15 14 0 13 -5 18 -15 14 -8 -4 -15 -1 -15 6 0 8 11 11 30 8 19 -3 29 -1 27 6
-2 6 -21 12 -43 14 l-39 3 0 -56z"/>
<path d="M1673 875 c-23 -44 10 -116 40 -86 8 8 7 11 -6 11 -20 0 -24 36 -4
43 8 4 9 8 1 14 -6 4 -13 15 -16 23 -4 12 -7 11 -15 -5z"/>
<path d="M1791 881 c-7 -5 -10 -14 -6 -21 5 -9 2 -10 -13 -6 -15 5 -24 1 -32
-14 -17 -32 3 -58 43 -58 l34 0 -4 47 c-6 62 -6 62 -22 52z m-3 -64 c2 -10 -3
-17 -12 -17 -18 0 -29 16 -21 31 9 14 29 6 33 -14z"/>
<path d="M1968 882 c-19 -4 -25 -22 -8 -22 6 0 10 -13 10 -30 0 -16 -4 -30
-10 -30 -5 0 -10 -4 -10 -10 0 -5 14 -10 30 -10 17 0 30 5 30 10 0 6 -4 10 -9
10 -6 0 -11 19 -13 43 -2 34 -6 42 -20 39z"/>
<path d="M2054 876 c-15 -12 -16 -17 -7 -27 9 -9 10 -16 2 -26 -9 -9 -8 -17 1
-28 16 -19 40 -19 65 -1 16 11 17 17 7 29 -7 8 -9 22 -6 32 12 31 -29 45 -62
21z m44 -17 c-2 -6 -8 -10 -13 -10 -5 0 -11 4 -13 10 -2 6 4 11 13 11 9 0 15
-5 13 -11z m0 -47 c2 -7 -6 -12 -17 -12 -21 0 -27 11 -14 24 9 9 26 2 31 -12z"/>
<path d="M2154 876 c-15 -12 -17 -18 -8 -33 7 -10 21 -18 33 -17 28 1 21 -20
-7 -24 -12 -2 -22 -8 -22 -14 0 -15 53 0 68 19 16 23 15 48 -4 67 -19 20 -35
20 -60 2z m51 -15 c3 -5 1 -13 -5 -16 -15 -9 -43 3 -35 15 8 13 32 13 40 1z"/>
<path d="M2278 882 c-19 -4 -25 -22 -8 -22 6 0 10 -13 10 -30 0 -16 -4 -30
-10 -30 -5 0 -10 -4 -10 -10 0 -5 14 -10 30 -10 17 0 30 5 30 10 0 6 -4 10 -9
10 -6 0 -11 19 -13 43 -2 34 -6 42 -20 39z"/>
<path d="M1586 853 c-12 -13 -6 -30 17 -42 l22 -12 -22 5 c-14 2 -23 -1 -23
-8 0 -8 12 -13 27 -12 36 1 44 32 11 45 l-23 10 23 0 c12 1 22 5 22 9 0 10
-45 14 -54 5z"/>
<path d="M1840 794 c0 -8 5 -12 10 -9 6 4 8 11 5 16 -9 14 -15 11 -15 -7z"/>
<path d="M3063 2943 l-32 -25 25 -33 25 -34 39 27 c22 15 39 30 40 33 0 12
-42 59 -53 59 -7 -1 -26 -12 -44 -27z"/>
<path d="M3432 2532 c-9 -6 -6 -25 15 -81 15 -42 30 -68 35 -63 16 16 22 120
8 137 -14 16 -38 19 -58 7z"/>
<path d="M3290 2390 c-16 -30 4 -60 40 -60 36 0 56 30 40 60 -7 13 -21 20 -40
20 -19 0 -33 -7 -40 -20z"/>
<path d="M3385 2209 c-4 -6 -4 -25 -1 -44 9 -44 -11 -56 -25 -16 -7 19 -18 31
-29 31 -23 0 -29 -18 -18 -51 13 -39 43 -49 118 -41 56 6 65 10 65 27 0 15 -7
20 -30 20 -25 1 -30 6 -36 31 -10 50 -29 69 -44 43z"/>
<path d="M360 1661 c-21 -41 20 -72 59 -44 25 17 26 26 5 47 -21 22 -51 20
-64 -3z"/>
<path d="M3356 1624 c-20 -19 -20 -48 -1 -67 12 -13 102 -34 110 -25 1 2 6 18
10 36 6 31 5 32 -24 32 -19 0 -38 8 -48 20 -21 24 -27 25 -47 4z"/>
</g>
</svg>
